<svg id="レイヤー_1" data-name="レイヤー 1" xmlns="http://www.w3.org/2000/svg" viewBox="0 0 209.17 189.44"><defs><style>.cls-1{fill:#fff;}.cls-2,.cls-3{fill:#9cbb1c;}.cls-3{font-size:44.86px;font-family:ZenMaruGothic-Black, Zen Maru Gothic;font-weight:800;}</style></defs><path class="cls-1" d="M118.54,123.69A4.5,4.5,0,0,1,115.9,121a3.62,3.62,0,0,1-.43-1.92V118a4.94,4.94,0,0,1,.23-1.49,5.32,5.32,0,0,1-.06-1,5.43,5.43,0,0,1-.17-1.38V40.55a4.72,4.72,0,0,1,4.93-4.83v-.19a12.81,12.81,0,0,0-12.81-12.8H31.15a12.8,12.8,0,0,0-12.8,12.8V155.71a12.8,12.8,0,0,0,12.8,12.8h76.44a12.81,12.81,0,0,0,12.81-12.8V124.12A3.83,3.83,0,0,1,118.54,123.69Z"/><path class="cls-2" d="M121.8,123.94l-1.33.18a3.88,3.88,0,0,1-1.93-.43l-.14-.07v32.09a10.82,10.82,0,0,1-10.81,10.8H31.15a10.81,10.81,0,0,1-10.8-10.8V35.53a10.81,10.81,0,0,1,10.8-10.8h76.44a10.82,10.82,0,0,1,10.81,10.8v.58a5.68,5.68,0,0,1,4,0v-.53a14.83,14.83,0,0,0-14.81-14.8H31.15a14.82,14.82,0,0,0-14.8,14.8V155.71a14.82,14.82,0,0,0,14.8,14.8h76.44a14.83,14.83,0,0,0,14.81-14.8v-32Q122.1,123.85,121.8,123.94Z"/><text class="cls-3" transform="translate(63.4 69.86)">My<tspan x="0" y="40.78">Fridge</tspan></text><path class="cls-2" d="M25.67,119.6h87.4a3.3,3.3,0,0,1,3.3,3.3v33.17a8.75,8.75,0,0,1-8.75,8.75H31.12a8.75,8.75,0,0,1-8.75-8.75V122.9A3.3,3.3,0,0,1,25.67,119.6Z"/><path class="cls-1" d="M107.55,166.82H31.18a10.8,10.8,0,0,1-10.83-10.75V122.9a5.32,5.32,0,0,1,5.34-5.3H113a5.32,5.32,0,0,1,5.34,5.3v33.17A10.8,10.8,0,0,1,107.55,166.82ZM25.69,121.6a1.31,1.31,0,0,0-1.31,1.3v33.17a6.78,6.78,0,0,0,6.8,6.75h76.37a6.78,6.78,0,0,0,6.8-6.75V122.9a1.31,1.31,0,0,0-1.31-1.3Z"/><path class="cls-1" d="M80.24,128.72H61.87a5.37,5.37,0,0,1-2.47-.86h0c-2.25-1.34-3.59-3.5-1.7-3.49H84.26c1.74,0,.79,1.91-1.23,3.27h0A5.64,5.64,0,0,1,80.24,128.72Z"/><path class="cls-2" d="M54,131.88,25.56,121c-1.79-.69-3.21-4.44-3.21-8.39v-76c0-4,1.42-7.69,3.22-8.28l28.57-9.41c2.76-.91,5.07,2.5,5.06,7.65L59,124.6C59,129.69,56.7,132.94,54,131.88Z"/><path class="cls-1" d="M55,134.08a4.93,4.93,0,0,1-1.75-.33L24.84,122.83c-3.09-1.18-4.49-6.14-4.49-10.25v-76c0-4.17,1.44-9.14,4.6-10.18l28.56-9.41a4.65,4.65,0,0,1,4.3.69c2.13,1.54,3.4,4.85,3.39,8.86L61,124.6c0,4-1.28,7.19-3.4,8.64A4.59,4.59,0,0,1,55,134.08ZM55,20.69a.8.8,0,0,0-.26,0L26.2,30.15c-.5.24-1.85,2.57-1.85,6.38v76.05c0,3.71,1.35,6.25,1.93,6.52L54.67,130a.62.62,0,0,0,.68-.07c.8-.54,1.65-2.45,1.66-5.34l.19-98.11c0-3-.9-5-1.73-5.62A.77.77,0,0,0,55,20.69Z"/><path class="cls-1" d="M49.42,93.06V57.71c0-2.59.84-5.74,2-7.18h0c1.31-1.63,2.5-.49,2.5,2.75V97.49c0,3.24-1.19,4.39-2.5,2.76h0C50.26,98.81,49.42,95.66,49.42,93.06Z"/><path class="cls-1" d="M52.55,101.48a2,2,0,0,1-1.53-.92c-1.2-1.5-2.1-4.72-2.1-7.5V57.71c0-2.77.9-6,2.1-7.5.84-1,1.57-1,1.93-.85.94.33,1.46,1.72,1.46,3.92V97.49c0,2.2-.52,3.59-1.46,3.92A1.1,1.1,0,0,1,52.55,101.48Zm0-51.19c-.19,0-.47.2-.75.55-1,1.32-1.88,4.34-1.88,6.87V93.06c0,2.54.83,5.56,1.88,6.88.32.39.64.59.82.53s.79-1,.79-3V53.28c0-2-.47-2.86-.79-3Z"/><path class="cls-2" d="M120.4,38.5a2.17,2.17,0,0,1-2-2.31h0a2,2,0,1,1,4,0h0A2.17,2.17,0,0,1,120.4,38.5Z"/><path class="cls-2" d="M120.4,125.57a2.18,2.18,0,0,1-2-2.31h0a2,2,0,1,1,4,0h0A2.18,2.18,0,0,1,120.4,125.57Z"/></svg>